
<svg width="640" height="220" viewBox="0 0 640 220" xmlns="http://www.w3.org/2000/svg">
  <g transform="translate(0,0)">
    
    <rect width="310" height="220" fill="#ecfdf5" rx="8"/>
    <text x="155" y="20" text-anchor="middle" font-family="system-ui,sans-serif"
          font-size="13" font-weight="700" fill="#0f172a">✓ GOOD — readable density</text>
    
    <line x1="155" y1="75" x2="80" y2="130" stroke="#64748b" stroke-width="1.5"/>
    <line x1="155" y1="75" x2="155" y2="130" stroke="#64748b" stroke-width="1.5"/>
    <line x1="155" y1="75" x2="230" y2="130" stroke="#64748b" stroke-width="1.5"/>
    <line x1="80" y1="130" x2="60" y2="180" stroke="#64748b" stroke-width="1.5"/>
    <line x1="80" y1="130" x2="110" y2="180" stroke="#64748b" stroke-width="1.5"/>
    <line x1="230" y1="130" x2="210" y2="180" stroke="#64748b" stroke-width="1.5"/>
    <line x1="230" y1="130" x2="260" y2="180" stroke="#64748b" stroke-width="1.5"/>
    
    <circle cx="155" cy="75" r="22" fill="#10b981" stroke="#0f172a" stroke-width="1"/>
    <text x="155" y="78" text-anchor="middle" font-family="system-ui,sans-serif"
          font-size="10" fill="white" font-weight="600">Root</text>
    
    
    <circle cx="80" cy="130" r="16" fill="#3b82f6" stroke="#0f172a" stroke-width="1"/>
    <text x="80" y="133" text-anchor="middle" font-family="system-ui,sans-serif"
          font-size="10" fill="white" font-weight="600">A</text>
    
    
    <circle cx="155" cy="130" r="16" fill="#3b82f6" stroke="#0f172a" stroke-width="1"/>
    <text x="155" y="133" text-anchor="middle" font-family="system-ui,sans-serif"
          font-size="10" fill="white" font-weight="600">B</text>
    
    
    <circle cx="230" cy="130" r="16" fill="#3b82f6" stroke="#0f172a" stroke-width="1"/>
    <text x="230" y="133" text-anchor="middle" font-family="system-ui,sans-serif"
          font-size="10" fill="white" font-weight="600">C</text>
    
    
    <circle cx="60" cy="180" r="12" fill="#cbd5e1" stroke="#0f172a" stroke-width="1"/>
    <text x="60" y="183" text-anchor="middle" font-family="system-ui,sans-serif"
          font-size="9" fill="white" font-weight="600">a1</text>
    
    
    <circle cx="110" cy="180" r="12" fill="#cbd5e1" stroke="#0f172a" stroke-width="1"/>
    <text x="110" y="183" text-anchor="middle" font-family="system-ui,sans-serif"
          font-size="9" fill="white" font-weight="600">a2</text>
    
    
    <circle cx="210" cy="180" r="12" fill="#cbd5e1" stroke="#0f172a" stroke-width="1"/>
    <text x="210" y="183" text-anchor="middle" font-family="system-ui,sans-serif"
          font-size="9" fill="white" font-weight="600">c1</text>
    
    
    <circle cx="260" cy="180" r="12" fill="#cbd5e1" stroke="#0f172a" stroke-width="1"/>
    <text x="260" y="183" text-anchor="middle" font-family="system-ui,sans-serif"
          font-size="9" fill="white" font-weight="600">c2</text>
    
  </g>
  <g transform="translate(330,0)">
    
    <rect width="310" height="220" fill="#fef2f2" rx="8"/>
    <text x="155" y="20" text-anchor="middle" font-family="system-ui,sans-serif"
          font-size="13" font-weight="700" fill="#0f172a">✗ BAD — too dense (or too sparse)</text>
    
    <!-- Heavy fan-out -->
    <g stroke="#64748b" stroke-width="1">
      <line x1="155" y1="75" x2="35"  y2="160"/>
      <line x1="155" y1="75" x2="65"  y2="170"/>
      <line x1="155" y1="75" x2="95"  y2="180"/>
      <line x1="155" y1="75" x2="125" y2="185"/>
      <line x1="155" y1="75" x2="155" y2="190"/>
      <line x1="155" y1="75" x2="185" y2="185"/>
      <line x1="155" y1="75" x2="215" y2="180"/>
      <line x1="155" y1="75" x2="245" y2="170"/>
      <line x1="155" y1="75" x2="275" y2="160"/>
    </g>
    
    <circle cx="155" cy="75" r="22" fill="#ef4444" stroke="#0f172a" stroke-width="1"/>
    <text x="155" y="78" text-anchor="middle" font-family="system-ui,sans-serif"
          font-size="10" fill="white" font-weight="600">Root</text>
    
    
    <circle cx="35" cy="160" r="8" fill="#cbd5e1" stroke="#0f172a" stroke-width="1"/>
    <text x="35" y="163" text-anchor="middle" font-family="system-ui,sans-serif"
          font-size="9" fill="white" font-weight="600">•</text>
    
    
    <circle cx="65" cy="170" r="8" fill="#cbd5e1" stroke="#0f172a" stroke-width="1"/>
    <text x="65" y="173" text-anchor="middle" font-family="system-ui,sans-serif"
          font-size="9" fill="white" font-weight="600">•</text>
    
    
    <circle cx="95" cy="180" r="8" fill="#cbd5e1" stroke="#0f172a" stroke-width="1"/>
    <text x="95" y="183" text-anchor="middle" font-family="system-ui,sans-serif"
          font-size="9" fill="white" font-weight="600">•</text>
    
    
    <circle cx="125" cy="185" r="8" fill="#cbd5e1" stroke="#0f172a" stroke-width="1"/>
    <text x="125" y="188" text-anchor="middle" font-family="system-ui,sans-serif"
          font-size="9" fill="white" font-weight="600">•</text>
    
    
    <circle cx="155" cy="190" r="8" fill="#cbd5e1" stroke="#0f172a" stroke-width="1"/>
    <text x="155" y="193" text-anchor="middle" font-family="system-ui,sans-serif"
          font-size="9" fill="white" font-weight="600">•</text>
    
    
    <circle cx="185" cy="185" r="8" fill="#cbd5e1" stroke="#0f172a" stroke-width="1"/>
    <text x="185" y="188" text-anchor="middle" font-family="system-ui,sans-serif"
          font-size="9" fill="white" font-weight="600">•</text>
    
    
    <circle cx="215" cy="180" r="8" fill="#cbd5e1" stroke="#0f172a" stroke-width="1"/>
    <text x="215" y="183" text-anchor="middle" font-family="system-ui,sans-serif"
          font-size="9" fill="white" font-weight="600">•</text>
    
    
    <circle cx="245" cy="170" r="8" fill="#cbd5e1" stroke="#0f172a" stroke-width="1"/>
    <text x="245" y="173" text-anchor="middle" font-family="system-ui,sans-serif"
          font-size="9" fill="white" font-weight="600">•</text>
    
    
    <circle cx="275" cy="160" r="8" fill="#cbd5e1" stroke="#0f172a" stroke-width="1"/>
    <text x="275" y="163" text-anchor="middle" font-family="system-ui,sans-serif"
          font-size="9" fill="white" font-weight="600">•</text>
    
    <text x="155" y="210" text-anchor="middle" font-family="system-ui,sans-serif"
          font-size="9" fill="#7f1d1d">→ 9 children at one level — overwhelming</text>
  </g>
</svg>
