
<svg width="640" height="220" viewBox="0 0 640 220" xmlns="http://www.w3.org/2000/svg">
  <g transform="translate(0,0)">
    
    <rect width="310" height="220" fill="#ecfdf5" rx="8"/>
    <text x="155" y="20" text-anchor="middle" font-family="system-ui,sans-serif"
          font-size="13" font-weight="700" fill="#0f172a">✓ GOOD — clean hierarchy</text>
    
    <!-- Good: balanced 3-level tree -->
    <line x1="155" y1="70" x2="80" y2="130" stroke="#64748b" stroke-width="1.5"/>
    <line x1="155" y1="70" x2="155" y2="130" stroke="#64748b" stroke-width="1.5"/>
    <line x1="155" y1="70" x2="230" y2="130" stroke="#64748b" stroke-width="1.5"/>
    <line x1="80" y1="130" x2="50" y2="180" stroke="#64748b" stroke-width="1.5"/>
    <line x1="80" y1="130" x2="110" y2="180" stroke="#64748b" stroke-width="1.5"/>
    <line x1="155" y1="130" x2="155" y2="180" stroke="#64748b" stroke-width="1.5"/>
    <line x1="230" y1="130" x2="200" y2="180" stroke="#64748b" stroke-width="1.5"/>
    <line x1="230" y1="130" x2="260" y2="180" stroke="#64748b" stroke-width="1.5"/>
    
    <circle cx="155" cy="70" r="24" fill="#10b981" stroke="#0f172a" stroke-width="1"/>
    <text x="155" y="73" text-anchor="middle" font-family="system-ui,sans-serif"
          font-size="11" fill="white" font-weight="600">Topic</text>
    
    
    <circle cx="80" cy="130" r="16" fill="#3b82f6" stroke="#0f172a" stroke-width="1"/>
    <text x="80" y="133" text-anchor="middle" font-family="system-ui,sans-serif"
          font-size="10" fill="white" font-weight="600">A</text>
    
    
    <circle cx="155" cy="130" r="16" fill="#3b82f6" stroke="#0f172a" stroke-width="1"/>
    <text x="155" y="133" text-anchor="middle" font-family="system-ui,sans-serif"
          font-size="10" fill="white" font-weight="600">B</text>
    
    
    <circle cx="230" cy="130" r="16" fill="#3b82f6" stroke="#0f172a" stroke-width="1"/>
    <text x="230" y="133" text-anchor="middle" font-family="system-ui,sans-serif"
          font-size="10" fill="white" font-weight="600">C</text>
    
    
    <circle cx="50" cy="180" r="12" fill="#cbd5e1" stroke="#0f172a" stroke-width="1"/>
    <text x="50" y="183" text-anchor="middle" font-family="system-ui,sans-serif"
          font-size="9" fill="white" font-weight="600">a1</text>
    
    
    <circle cx="110" cy="180" r="12" fill="#cbd5e1" stroke="#0f172a" stroke-width="1"/>
    <text x="110" y="183" text-anchor="middle" font-family="system-ui,sans-serif"
          font-size="9" fill="white" font-weight="600">a2</text>
    
    
    <circle cx="155" cy="180" r="12" fill="#cbd5e1" stroke="#0f172a" stroke-width="1"/>
    <text x="155" y="183" text-anchor="middle" font-family="system-ui,sans-serif"
          font-size="9" fill="white" font-weight="600">b1</text>
    
    
    <circle cx="200" cy="180" r="12" fill="#cbd5e1" stroke="#0f172a" stroke-width="1"/>
    <text x="200" y="183" text-anchor="middle" font-family="system-ui,sans-serif"
          font-size="9" fill="white" font-weight="600">c1</text>
    
    
    <circle cx="260" cy="180" r="12" fill="#cbd5e1" stroke="#0f172a" stroke-width="1"/>
    <text x="260" y="183" text-anchor="middle" font-family="system-ui,sans-serif"
          font-size="9" fill="white" font-weight="600">c2</text>
    
  </g>
  <g transform="translate(330,0)">
    
    <rect width="310" height="220" fill="#fef2f2" rx="8"/>
    <text x="155" y="20" text-anchor="middle" font-family="system-ui,sans-serif"
          font-size="13" font-weight="700" fill="#0f172a">✗ BAD — tangled / cyclic</text>
    
    <!-- Bad: messy crossings, child connecting back to root -->
    <line x1="155" y1="70" x2="80" y2="130" stroke="#64748b" stroke-width="1.5"/>
    <line x1="155" y1="70" x2="230" y2="130" stroke="#64748b" stroke-width="1.5"/>
    <line x1="80" y1="130" x2="230" y2="180" stroke="#64748b" stroke-width="1.5"/>
    <line x1="230" y1="130" x2="50" y2="180" stroke="#64748b" stroke-width="1.5"/>
    <line x1="50" y1="180" x2="230" y2="70" stroke="#ef4444" stroke-width="1.5" stroke-dasharray="3,3"/>
    <line x1="155" y1="130" x2="80" y2="130" stroke="#64748b" stroke-width="1.5"/>
    
    <circle cx="155" cy="70" r="24" fill="#ef4444" stroke="#0f172a" stroke-width="1"/>
    <text x="155" y="73" text-anchor="middle" font-family="system-ui,sans-serif"
          font-size="11" fill="white" font-weight="600">Topic</text>
    
    
    <circle cx="80" cy="130" r="16" fill="#3b82f6" stroke="#0f172a" stroke-width="1"/>
    <text x="80" y="133" text-anchor="middle" font-family="system-ui,sans-serif"
          font-size="10" fill="white" font-weight="600">A</text>
    
    
    <circle cx="155" cy="130" r="14" fill="#ef4444" stroke="#0f172a" stroke-width="1"/>
    <text x="155" y="133" text-anchor="middle" font-family="system-ui,sans-serif"
          font-size="11" fill="white" font-weight="600">?</text>
    
    
    <circle cx="230" cy="130" r="16" fill="#3b82f6" stroke="#0f172a" stroke-width="1"/>
    <text x="230" y="133" text-anchor="middle" font-family="system-ui,sans-serif"
          font-size="10" fill="white" font-weight="600">B</text>
    
    
    <circle cx="50" cy="180" r="12" fill="#cbd5e1" stroke="#0f172a" stroke-width="1"/>
    <text x="50" y="183" text-anchor="middle" font-family="system-ui,sans-serif"
          font-size="9" fill="white" font-weight="600">a</text>
    
    
    <circle cx="230" cy="180" r="12" fill="#cbd5e1" stroke="#0f172a" stroke-width="1"/>
    <text x="230" y="183" text-anchor="middle" font-family="system-ui,sans-serif"
          font-size="9" fill="white" font-weight="600">b</text>
    
  </g>
</svg>
